<svg width="21" height="16" viewBox="0 0 21 16" fill="none" xmlns="http://www.w3.org/2000/svg">
<path d="M16.05 5.98122L15.7992 6.43263C15.6989 6.59564 15.4982 6.67088 15.3227 6.59564C14.9465 6.45771 14.6079 6.25708 14.3195 6.0063C14.1691 5.89345 14.1315 5.68028 14.2318 5.51727L14.4826 5.06586C14.2694 4.81508 14.0938 4.52667 13.981 4.21319H13.4669C13.2788 4.21319 13.1158 4.07526 13.0782 3.88718C13.0155 3.511 13.0155 3.10975 13.0782 2.72103C13.1032 2.53294 13.2663 2.39501 13.4669 2.39501H13.981C14.0938 2.08153 14.2694 1.78059 14.4826 1.52981L14.2318 1.0784C14.1315 0.91539 14.1691 0.702223 14.3195 0.589371C14.6205 0.338587 14.959 0.13796 15.3227 2.90219e-05C15.4982 -0.0626669 15.6989 2.90293e-05 15.7992 0.175578L16.05 0.626988C16.376 0.564292 16.7145 0.564292 17.0405 0.626988L17.2913 0.175578C17.3791 0.0125682 17.5923 -0.0626669 17.7678 2.90219e-05C18.144 0.13796 18.47 0.338587 18.771 0.589371C18.9089 0.702223 18.9465 0.91539 18.8587 1.0784L18.5954 1.52981C18.8086 1.78059 18.9841 2.06899 19.097 2.39501H19.6111C19.7992 2.39501 19.9622 2.53294 19.9998 2.72103C20.0625 3.09721 20.0625 3.49846 19.9998 3.88718C19.9747 4.07526 19.8117 4.21319 19.6111 4.21319H19.097C18.9841 4.52667 18.8086 4.81508 18.5954 5.06586L18.8587 5.51727C18.9465 5.68028 18.9214 5.89345 18.771 6.0063C18.47 6.25708 18.1315 6.45771 17.7678 6.59564C17.5923 6.65834 17.3916 6.59564 17.2913 6.43263L17.0405 5.98122C16.7271 6.04392 16.3885 6.04392 16.05 5.98122ZM15.7239 4.13796C16.9277 5.06586 18.307 3.68655 17.3791 2.48279C16.1753 1.55489 14.796 2.9342 15.7239 4.13796ZM12.1126 8.96555L13.1659 9.49219C13.4794 9.66774 13.6173 10.0565 13.492 10.4076C13.2161 11.1599 12.6644 11.8621 12.1628 12.464C11.9371 12.7398 11.5233 12.8151 11.2098 12.627L10.2945 12.1003C9.7929 12.5267 9.20356 12.8652 8.5766 13.0909V14.1442C8.5766 14.5079 8.31327 14.8213 7.96218 14.884C7.18475 15.0094 6.38224 15.022 5.57973 14.884C5.21609 14.8213 4.95277 14.5079 4.95277 14.1442V13.0909C4.31327 12.8778 3.73647 12.5392 3.2349 12.1003L2.31954 12.627C2.00606 12.8025 1.60481 12.7398 1.36656 12.464C0.864998 11.8496 0.325813 11.1599 0.0499505 10.4076C-0.0754414 10.069 0.0624897 9.68028 0.375969 9.49219L1.41672 8.96555C1.29133 8.31351 1.29133 7.63639 1.41672 6.97182L0.375969 6.44517C0.0624897 6.26962 -0.0754414 5.88091 0.0499505 5.54235C0.325813 4.79 0.864998 4.0878 1.3791 3.48592C1.61735 3.21006 2.00606 3.13482 2.33208 3.32291L3.24744 3.84956C3.74901 3.42323 4.33835 3.08467 4.96531 2.85896V1.78059C4.96531 1.41696 5.21609 1.10348 5.57973 1.04078C6.34462 0.90285 7.15967 0.90285 7.96218 1.04078C8.32581 1.10348 8.58914 1.41696 8.58914 1.78059V2.83388C9.22863 3.05959 9.80544 3.39815 10.307 3.82448L11.2224 3.29783C11.5233 3.12229 11.9246 3.19752 12.1628 3.47338C12.6769 4.07526 13.2036 4.77746 13.4794 5.54235C13.6048 5.88091 13.4794 6.26962 13.1659 6.45771L12.1126 6.97182C12.238 7.63639 12.238 8.30097 12.1126 8.96555ZM8.42613 9.63012C10.2819 7.21006 7.5233 4.45144 5.11578 6.30724C3.25998 8.7273 6.00606 11.4859 8.42613 9.63012ZM16.05 15.348L15.7992 15.7994C15.6989 15.9624 15.4982 16.0376 15.3227 15.9749C14.9465 15.837 14.6079 15.6364 14.3195 15.3856C14.1691 15.2728 14.1315 15.0596 14.2318 14.8966L14.4826 14.4452C14.2694 14.1944 14.0938 13.906 13.981 13.5925H13.4669C13.2788 13.5925 13.1158 13.4546 13.0782 13.2665C13.0155 12.8903 13.0155 12.4891 13.0782 12.1003C13.1032 11.9123 13.2663 11.7743 13.4669 11.7743H13.981C14.0938 11.4608 14.2694 11.1599 14.4826 10.9091L14.2318 10.4577C14.1315 10.2947 14.1691 10.0815 14.3195 9.96868C14.6205 9.7179 14.959 9.51727 15.3227 9.37934C15.4982 9.31664 15.6989 9.37934 15.7992 9.54235L16.05 9.99376C16.376 9.93106 16.7145 9.93106 17.0405 9.99376L17.2913 9.54235C17.3791 9.37934 17.5923 9.3041 17.7678 9.37934C18.144 9.51727 18.47 9.7179 18.771 9.96868C18.9089 10.0815 18.9465 10.2947 18.8587 10.4577L18.5954 10.9091C18.8086 11.1599 18.9841 11.4483 19.097 11.7743H19.6111C19.7992 11.7743 19.9622 11.9123 19.9998 12.1003C20.0625 12.4765 20.0625 12.8652 19.9998 13.2665C19.9747 13.4546 19.8117 13.5925 19.6111 13.5925H19.097C18.9841 13.906 18.8086 14.1944 18.5954 14.4452L18.8587 14.8966C18.9465 15.0596 18.9214 15.2728 18.771 15.3856C18.47 15.6364 18.1315 15.837 17.7678 15.9749C17.5923 16.0376 17.3916 15.9749 17.2913 15.7994L17.0405 15.348C16.7271 15.4107 16.3885 15.4107 16.05 15.348ZM15.7239 13.5047C16.9277 14.4326 18.307 13.0533 17.3791 11.8496C16.1753 10.9217 14.796 12.301 15.7239 13.5047Z" fill="black"/>
</svg>
